<?xml version="1.0" encoding="utf-8"?>
<!-- Generator: Adobe Illustrator 22.0.1, SVG Export Plug-In . SVG Version: 6.00 Build 0)  -->
<svg version="1.1" id="Layer_1" xmlns="http://www.w3.org/2000/svg" xmlns:xlink="http://www.w3.org/1999/xlink" x="0px" y="0px"
	 viewBox="0 0 800 800" style="enable-background:new 0 0 800 800;" xml:space="preserve">
<style type="text/css">
	.st0{fill:#003DB4;}
</style>
<path class="st0" d="M600.4,175.7H199.6c-13.7,0-24.9,11.1-24.9,24.9v400.8c0,13.7,11.1,24.9,24.9,24.9h215.8V452h-58.5v-68.2h58.5
	v-50.2c0-58.2,35.5-89.9,87.5-89.9c24.9,0,46.2,1.9,52.5,2.7v60.8h-35.9c-28.2,0-33.6,13.4-33.6,33.1v43.5h67.5l-8.8,68.2h-58.7
	v174.2h114.6c13.7,0,24.9-11.1,24.9-24.9l0,0V200.6C625.3,186.8,614.1,175.7,600.4,175.7z"/>
</svg>
