<?xml version="1.0" encoding="utf-8"?>
<!-- Generator: Adobe Illustrator 22.1.0, SVG Export Plug-In . SVG Version: 6.00 Build 0)  -->
<svg version="1.1" id="Layer_1" xmlns="http://www.w3.org/2000/svg" xmlns:xlink="http://www.w3.org/1999/xlink" x="0px" y="0px"
	 viewBox="0 0 800 800" style="enable-background:new 0 0 800 800;" xml:space="preserve">
<style type="text/css">
	.st0{fill:#FC6D26;}
	.st1{fill:#E24329;}
	.st2{fill:#FCA326;}
</style>
<g id="Page-1_1_" sketch:type="MSPage">
	<g id="logo-square" sketch:type="MSArtboardGroup">
		<g id="logo-no-bg" transform="translate(2.000000, 19.000000)" sketch:type="MSLayerGroup">
			<g id="Page-1" sketch:type="MSShapeGroup">
				<g id="gitlab_logo">
					
						<g id="g10" transform="translate(248.000000, 228.833300) scale(1, -1) translate(-248.000000, -228.833300) translate(0.000000, 0.333300)">
						<g id="g16">
							<g id="g18-Clipped">
								<g id="g18">
									<g>
										<g id="Group" transform="translate(0.666658, 0.666658)">
											<g id="g44" transform="translate(0.532000, 0.774933)">
												<path id="path46" class="st0" d="M642,40.7l-27.6,84.8l-54.6,168.1c-2.8,8.6-15,8.6-17.9,0l-54.6-168.1H306l-54.6,168.1
													c-2.8,8.6-15,8.6-17.9,0l-54.6-168.1l-27.6-84.8c-2.5-7.7,0.2-16.2,6.8-21l238.5-173.3L635.2,19.7
													C641.8,24.5,644.5,32.9,642,40.7"/>
											</g>
											<g id="g48" transform="translate(156.197863, 1.160267)">
												<path id="path50" class="st1" d="M241-154L241-154l90.7,279.1H150.3L241-154L241-154z"/>
											</g>
											<g id="g56" transform="translate(28.531199, 1.160800)">
												<path id="path58" class="st0" d="M368.7-154L278,125.1H150.9L368.7-154L368.7-154z"/>
											</g>
											<g id="g64" transform="translate(0.088533, 0.255867)">
												<path id="path66" class="st2" d="M179.3,126L179.3,126l-27.6-84.8c-2.5-7.7,0.2-16.2,6.8-21l238.5-173.3L179.3,126
													L179.3,126z"/>
											</g>
											<g id="g72" transform="translate(29.421866, 280.255593)">
												<path id="path74" class="st1" d="M150-154h127.1L222.5,14.1c-2.8,8.6-15,8.6-17.9,0L150-154L150-154z"/>
											</g>
											<g id="g76" transform="translate(247.197860, 1.160800)">
												<path id="path78" class="st0" d="M150-154l90.7,279.1h127.1L150-154L150-154z"/>
											</g>
											<g id="g80" transform="translate(246.307061, 0.255867)">
												<path id="path82" class="st2" d="M368.7,126L368.7,126l27.6-84.8c2.5-7.7-0.2-16.2-6.8-21L150.9-153.1L368.7,126
													L368.7,126z"/>
											</g>
											<g id="g84" transform="translate(336.973725, 280.255593)">
												<path id="path86" class="st1" d="M278-154H150.9l54.6,168.1c2.8,8.6,15,8.6,17.9,0L278-154L278-154z"/>
											</g>
										</g>
									</g>
								</g>
							</g>
						</g>
					</g>
				</g>
			</g>
		</g>
	</g>
</g>
</svg>
