<?xml version="1.0" encoding="utf-8"?>
<!-- Generator: Adobe Illustrator 22.1.0, SVG Export Plug-In . SVG Version: 6.00 Build 0)  -->
<svg version="1.1" id="Layer_1" xmlns="http://www.w3.org/2000/svg" xmlns:xlink="http://www.w3.org/1999/xlink" x="0px" y="0px"
	 viewBox="0 0 1250 1250" style="enable-background:new 0 0 1250 1250;" xml:space="preserve">
<style type="text/css">
	.st0{fill:#FFFFFF;}
	.st1{fill:none;}
</style>
<path class="st0" d="M903.2,856.1l-28.2,2.5c-19.7,1.7-39.4-3.9-55.2-15.8l-93-70l41.9-45L903.2,856.1z"/>
<path class="st0" d="M711.5,528.4c0,23-18.7,41.7-41.7,41.7c-23,0-41.7-18.7-41.7-41.7c0-23,18.7-41.7,41.7-41.7
	C692.8,486.7,711.5,505.4,711.5,528.4"/>
<path class="st0" d="M617.3,457.4L617.3,457.4c-5,1.8-10.5,0.3-13.9-3.7l-103-119.8c-3.4-3.9-2.3-10,2.3-12.5l8.5-4.7
	c15.5-8.5,35.1-2.9,43.7,12.6l66,118.6C622.8,451.5,621.1,456,617.3,457.4"/>
<path class="st0" d="M671,454L671,454c-2.8-0.2-5-2.4-5.2-5.1L656.3,332c-0.6-7.2,5-13.4,12.3-13.5c10-0.2,18.1,8.3,17.3,18.3
	L677.8,448C677.6,451.6,674.5,454.2,671,454"/>
<path class="st0" d="M736.5,477.4L736.5,477.4c3.3,1.3,6.8,0.6,8.9-1.7l62.2-69.8c2.1-2.3,1.1-6.1-1.9-7.8l-5.7-3.2
	c-10.4-5.8-22.8-3.1-27.8,6.1l-38.3,70.5C732.7,473.6,734,476.5,736.5,477.4"/>
<polygon class="st0" points="726.5,700.5 731.2,695.5 466.7,454.9 488.8,390.9 419.7,440.7 397.3,456.8 628.7,700.5 "/>
<path class="st0" d="M731.2,695.5l-102.5,4.9L391.6,955.3c48.4,7.4,97.4-9,131.5-44.1l155-159.4l19.9-20.5l0.4-0.4l0,0L731.2,695.5z
	"/>
<rect class="st1" width="1250" height="1250"/>
<polygon class="st0" points="884,539.2 854.2,511 854.1,510.9 854.1,510.9 810.9,469.8 825.7,533.8 719.1,619.7 762.9,661.8 
	880,543.4 "/>
</svg>
